# Blender v3.0.1 OBJ File: 'cube.blend'
# www.blender.org
mtllib 3cubeN.mtl
o Cube.001
v 1.000000 1.000000 -1.000000
v 1.000000 -1.000000 -1.000000
v 1.000000 1.000000 1.000000
v 1.000000 -1.000000 1.000000
v -1.000000 1.000000 -1.000000
v -1.000000 -1.000000 -1.000000
v -1.000000 1.000000 1.000000
v -1.000000 -1.000000 1.000000
vt 0.500000 0.625000
vt 0.500000 0.875000
vt 0.250000 0.875000
vt 0.250000 0.625000
vt 0.250000 0.375000
vt 0.000000 0.625000
vt 0.000000 0.375000
vt 1.000000 0.375000
vt 1.000000 0.625000
vt 0.750000 0.625000
vt 0.750000 0.375000
vt 0.500000 0.125000
vt 0.500000 0.375000
vt 0.250000 0.125000
vn 0.0000 1.0000 0.0000
vn 0.0000 0.0000 1.0000
vn -1.0000 0.0000 0.0000
vn 0.0000 -1.0000 0.0000
vn 1.0000 0.0000 0.0000
vn 0.0000 0.0000 -1.0000
usemtl Material.001
s 1
f 1/1/1 5/2/1 7/3/1 3/4/1
f 4/5/2 3/4/2 7/6/2 8/7/2
f 8/8/3 7/9/3 5/10/3 6/11/3
f 6/12/4 2/13/4 4/5/4 8/14/4
f 2/13/5 1/1/5 3/4/5 4/5/5
f 6/11/6 5/10/6 1/1/6 2/13/6
o Cube.002
v 0.372381 3.700435 -4.164187
v -0.390924 2.412012 -4.305077
v 1.298088 3.044054 -3.176895
v 0.534784 1.755631 -3.317785
v -0.534784 4.114738 -3.038168
v -1.298088 2.826316 -3.179057
v 0.390924 3.458358 -2.050876
v -0.372381 2.169935 -2.191765
vt 0.000000 0.000000
vt 1.000000 0.000000
vt 1.000000 1.000000
vt 0.000000 1.000000
vt 1.000000 0.000000
vt 1.000000 1.000000
vt 0.000000 1.000000
vt 0.000000 0.000000
vt 1.000000 0.000000
vt 0.000000 1.000000
vt 0.000000 0.000000
vt 1.000000 0.000000
vt 1.000000 1.000000
vt 0.000000 1.000000
vt 1.000000 1.000000
vt 0.000000 0.000000
vt 1.000000 0.000000
vt 1.000000 1.000000
vt 0.000000 1.000000
vt 0.000000 0.000000
vn 0.2859 0.5875 -0.7571
vn -0.4105 0.9055 0.1073
vn 0.3001 0.4016 0.8652
vn 0.9965 0.0836 0.0008
vn 0.4105 -0.9055 -0.1073
vn -0.2859 -0.5875 0.7571
vn -0.9965 -0.0836 -0.0008
vn -0.3001 -0.4016 -0.8652
usemtl Material.002
s 1
f 9/15/7 13/16/8 15/17/9 11/18/10
f 12/19/11 11/20/10 15/21/9 16/22/12
f 16/23/12 15/17/9 13/24/8 14/25/13
f 14/25/13 10/26/14 12/27/11 16/28/12
f 10/26/14 9/29/7 11/18/10 12/30/11
f 14/31/13 13/32/8 9/33/7 10/34/14
o Cube.003
v -1.144915 4.159818 3.442842
v -1.505118 3.721956 2.694755
v -1.764522 3.723360 3.996644
v -2.124724 3.285498 3.248557
v -1.751089 4.866137 3.321299
v -2.111292 4.428274 2.573212
v -2.370695 4.429678 3.875102
v -2.730898 3.991816 3.127014
vt 0.500000 0.625000
vt 0.500000 0.875000
vt 0.250000 0.875000
vt 0.250000 0.625000
vt 0.250000 0.375000
vt 0.000000 0.625000
vt 0.000000 0.375000
vt 1.000000 0.375000
vt 1.000000 0.625000
vt 0.750000 0.625000
vt 0.750000 0.375000
vt 0.500000 0.125000
vt 0.500000 0.375000
vt 0.250000 0.125000
vn 0.3837 0.4665 0.7970
vn -0.6601 -0.4650 0.5900
vn -0.6458 0.7525 -0.1295
vn -0.3837 -0.4665 -0.7970
vn 0.6458 -0.7525 0.1295
vn 0.6601 0.4650 -0.5900
usemtl Material.001
s 1
f 17/35/15 21/36/15 23/37/15 19/38/15
f 20/39/16 19/38/16 23/40/16 24/41/16
f 24/42/17 23/43/17 21/44/17 22/45/17
f 22/46/18 18/47/18 20/39/18 24/48/18
f 18/47/19 17/35/19 19/38/19 20/39/19
f 22/45/20 21/44/20 17/35/20 18/47/20
